<?xml version="1.0" encoding="UTF-8"?>
<svg xmlns="http://www.w3.org/2000/svg" xmlns:xlink="http://www.w3.org/1999/xlink" width="20pt" height="25pt" viewBox="0 0 20 25" version="1.1">
<g id="surface1">
<path style=" stroke:none;fill-rule:evenodd;fill:rgb(75.294118%,65.490196%,56.078431%);fill-opacity:1;" d="M 2.222656 0 L 13.792969 0 L 20 6.207031 L 20 22.222656 C 20 23.449219 19.003906 24.445312 17.777344 24.445312 L 2.222656 24.445312 C 0.996094 24.445312 0 23.449219 0 22.222656 L 0 2.222656 C 0 0.996094 0.996094 0 2.222656 0 Z M 11.109375 2.222656 L 2.222656 2.222656 L 2.222656 22.222656 L 17.777344 22.222656 L 17.777344 8.890625 L 13.332031 8.890625 C 12.105469 8.890625 11.109375 7.894531 11.109375 6.667969 Z M 13.332031 2.679688 L 13.332031 6.667969 L 17.320312 6.667969 Z M 5.554688 17.777344 L 5.554688 15.554688 L 12.222656 15.554688 L 12.222656 17.777344 Z M 5.554688 11.109375 L 5.554688 13.332031 L 14.445312 13.332031 L 14.445312 11.109375 Z M 5.554688 11.109375 "/>
</g>
</svg>
