<svg width="34" height="51" viewBox="0 0 34 51" fill="none" xmlns="http://www.w3.org/2000/svg">
<path d="M21.7621 0.429688V4.59669C21.7621 4.59669 21.4621 5.76069 22.6601 6.57369C23.8581 7.38669 31.3521 11.4927 31.3521 11.4927C31.3521 11.4927 33.9871 12.7767 31.8311 17.1567C29.6751 21.5367 25.9871 27.8147 25.9871 27.8147C25.9871 27.8147 24.7291 30.5697 26.5261 32.7597C28.3231 34.9497 31.4711 40.6477 31.4711 45.5327C31.4711 45.5327 28.3231 49.8797 16.1821 49.8797H17.4971C5.35705 49.8797 2.20805 45.5327 2.20805 45.5327C2.20805 40.6477 5.35606 34.9497 7.15306 32.7597C8.95006 30.5697 7.69206 27.8147 7.69206 27.8147C7.69206 27.8147 4.00407 21.5367 1.84807 17.1567C-0.307933 12.7767 2.32706 11.4927 2.32706 11.4927C2.32706 11.4927 9.82206 7.38569 11.0191 6.57369C12.2171 5.76069 11.9171 4.59669 11.9171 4.59669V0.429688" stroke="#C0A78F" stroke-width="2" stroke-miterlimit="3.8637"/>
</svg>
