<svg width="21" height="21" viewBox="0 0 21 21" fill="none" xmlns="http://www.w3.org/2000/svg">
<path fill-rule="evenodd" clip-rule="evenodd" d="M0.875 10.5C0.875 15.8157 5.18426 20.125 10.5 20.125C15.8157 20.125 20.125 15.8157 20.125 10.5C20.125 5.18426 15.8157 0.875 10.5 0.875C5.18426 0.875 0.875 5.18426 0.875 10.5ZM18.375 10.5C18.375 14.8492 14.8492 18.375 10.5 18.375C6.15076 18.375 2.625 14.8492 2.625 10.5C2.625 6.15076 6.15076 2.625 10.5 2.625C14.8492 2.625 18.375 6.15076 18.375 10.5ZM11.3782 12.2486H12.2526V13.9986H8.75259V12.2486H9.62759V10.4986H8.75259V8.74859H11.3782V12.2486ZM11.3756 6.99859C11.3756 7.48184 10.9837 7.87359 10.5003 7.87359C10.0169 7.87359 9.625 7.48184 9.625 6.99859C9.625 6.51534 10.0169 6.12359 10.5003 6.12359C10.9837 6.12359 11.3756 6.51534 11.3756 6.99859Z" fill="#C0A78F"/>
</svg>
