<svg width="21" height="21" viewBox="0 0 21 21" fill="none" xmlns="http://www.w3.org/2000/svg">
<path fill-rule="evenodd" clip-rule="evenodd" d="M9.97444 4.25529C10.5604 4.90482 10.3746 5.64067 9.85651 6.33888C9.73368 6.50441 9.59209 6.66752 9.42108 6.84725C9.339 6.93351 9.27499 6.99839 9.14112 7.1324L8.37435 7.89959C8.2739 8.00004 8.95972 9.37051 10.2907 10.7028C11.621 12.0344 12.9914 12.7207 13.0923 12.6197L13.8585 11.853C14.2805 11.4307 14.504 11.2269 14.811 11.0254C15.4494 10.6066 16.1457 10.4928 16.7329 11.0179C18.6503 12.3894 19.7354 13.2311 20.2669 13.7834C21.3037 14.8607 21.1678 16.5189 20.2728 17.465C19.9624 17.793 19.5689 18.1867 19.1041 18.6348C16.2926 21.4479 10.3589 19.736 5.81139 15.184C1.26285 10.631 -0.448184 4.69674 2.35747 1.88959C2.86116 1.37797 3.02723 1.21199 3.51779 0.728624C4.43112 -0.171309 6.16589 -0.312219 7.22044 0.729514C7.77515 1.27747 8.65949 2.41531 9.97444 4.25529ZM15.2721 13.2671L14.5057 14.0339C13.203 15.3373 10.9845 14.2263 8.87697 12.1167C6.76802 10.0057 5.65821 7.78797 6.96136 6.48493L7.72738 5.71849C7.84996 5.59579 7.90603 5.53895 7.97333 5.46822C8.06503 5.37185 8.14038 5.28721 8.20071 5.21231C7.03534 3.58897 6.24314 2.57461 5.81608 2.15274C5.59552 1.93487 5.10166 1.97498 4.92035 2.15363C4.4368 2.63009 4.27786 2.78895 3.7762 3.29846C1.97188 5.10377 3.35315 9.89429 7.22513 13.7701C11.0959 17.6447 15.8857 19.0266 17.7037 17.2078C18.1613 16.7664 18.5342 16.3934 18.8212 16.09C19.0286 15.8708 19.0656 15.4185 18.8271 15.1707C18.4297 14.7578 17.457 13.9994 15.7773 12.7932C15.6549 12.8917 15.5044 13.0346 15.2721 13.2671ZM15.9999 0.000904442V3.0009H12.9999V5.0009H15.9999V8.0009H17.9999V5.0009H20.9999V3.0009H17.9999V0.000904442H15.9999Z" fill="#C0A78F"/>
</svg>
