<svg width="22" height="22" viewBox="0 0 22 22" fill="none" xmlns="http://www.w3.org/2000/svg">
<path fill-rule="evenodd" clip-rule="evenodd" d="M0 21.9459C0.595878 20.0221 1.28654 18.1931 1.91796 16.3049C-2.26763 8.98444 2.91225 0.743365 9.92817 0.0587995C16.5523 -0.587628 21.9835 4.17037 22 10.6639C22.0172 17.5155 15.3721 23.2689 7.89738 20.9304C7.33355 20.7541 6.63589 20.1793 5.97942 20.1407C5.06197 20.0866 3.85961 20.7454 2.93324 21.0433C1.91784 21.3699 1.03492 21.6972 0 21.9459ZM6.20509 18.11C12.2412 21.7733 19.4689 17.6644 20.082 11.6793C20.6369 6.26107 16.3106 1.44012 10.4922 1.86392C3.84968 2.34764 -0.140365 10.2767 3.94863 16.0792C3.58666 17.0712 3.24793 18.0863 2.93324 19.1254C4.0415 18.8045 5.0631 18.3971 6.20509 18.11Z" fill="#C0A78F"/>
<path fill-rule="evenodd" clip-rule="evenodd" d="M8.57421 5.58584C9.20913 6.9139 10.1912 8.87823 8.57421 9.76025C9.39542 11.4963 10.7531 12.6959 12.5228 13.4833C13.1114 13.0941 13.4978 12.5027 13.9896 12.0167C15.0168 12.4185 15.977 12.8872 16.81 13.4833C16.8956 15.4242 15.2601 16.1419 13.8767 16.0782C10.9583 15.9439 6.94714 12.2568 5.97936 9.53458C5.40503 7.91936 6.06556 4.82996 8.57421 5.58584Z" fill="#C0A78F"/>
</svg>
