<svg width="20" height="22" viewBox="0 0 20 22" fill="none" xmlns="http://www.w3.org/2000/svg">
<path d="M3.67929 20.8598H0.499023V4.50195H3.73406" stroke="#333333" stroke-miterlimit="3.8637"/>
<path d="M5.89062 5.18856C5.89062 5.18856 5.89062 5.36384 5.89062 3.76822C5.89062 2.17355 7.09758 0.880859 8.58649 0.880859C10.0754 0.880859 11.2824 2.17355 11.2824 3.76822C11.2824 5.36288 11.2824 5.18856 11.2824 5.18856" stroke="#333333" stroke-miterlimit="3.8637"/>
<path d="M3.75879 4.50195H19.499V20.8598H3.75879V4.50195Z" fill="#E1C4A9"/>
<path d="M3.75879 4.50195H19.499V20.8598H3.75879V4.50195Z" stroke="black" stroke-miterlimit="3.8637"/>
<path d="M9.12598 6.27259C9.12598 6.27259 9.12598 4.90562 9.12598 3.47365C9.12598 2.04167 10.3329 0.880859 11.8218 0.880859C13.3108 0.880859 14.5177 2.04167 14.5177 3.47365C14.5177 4.90562 14.5177 6.27259 14.5177 6.27259" stroke="#333333" stroke-miterlimit="3.8637"/>
</svg>
