<svg width="16" height="20" viewBox="0 0 16 20" fill="none" xmlns="http://www.w3.org/2000/svg">
<path fill-rule="evenodd" clip-rule="evenodd" d="M1.77778 0H11.0349L16 4.96514V17.7778C16 18.7596 15.2041 19.5556 14.2222 19.5556H1.77778C0.795938 19.5556 0 18.7596 0 17.7778V1.77778C0 0.795938 0.795938 0 1.77778 0ZM8.88889 1.77691H1.77778V17.7769H14.2222V7.11111H10.6667C9.68483 7.11111 8.88889 6.31517 8.88889 5.33333V1.77691ZM10.6667 2.1451V5.33333H13.8549L10.6667 2.1451ZM4.44444 14.2222V12.4444H9.77778V14.2222H4.44444ZM4.44444 8.88889V10.6667H11.5556V8.88889H4.44444Z" fill="#C0A78F"/>
</svg>
