<svg width="18" height="19" viewBox="0 0 18 19" fill="none" xmlns="http://www.w3.org/2000/svg">
<path fill-rule="evenodd" clip-rule="evenodd" d="M5.59322 18.0494C2.52563 18.0494 0 15.5259 0 12.4346V5.61474C0 2.5227 2.52563 0 5.59322 0H12.3364C15.426 0 17.9296 2.5227 17.9296 5.61474V12.4346C17.9296 15.5259 15.426 18.0494 12.3364 18.0494H5.59322ZM1.82719 5.61556V12.4355C1.82719 14.5266 3.51827 16.2314 5.59322 16.2314H12.3364C14.4105 16.2314 16.1024 14.5266 16.1024 12.4355V5.61556C16.1024 3.52439 14.4105 1.81962 12.3364 1.81962H5.59322C3.51827 1.81962 1.82719 3.52439 1.82719 5.61556Z" fill="#2F2F2F"/>
<path fill-rule="evenodd" clip-rule="evenodd" d="M4.30762 9.02516C4.30762 6.4336 6.40456 4.32031 8.97583 4.32031C11.5471 4.32031 13.622 6.4336 13.622 9.02516C13.622 11.6159 11.5471 13.73 8.97583 13.73C6.40456 13.73 4.30762 11.6159 4.30762 9.02516ZM6.15681 9.02516C6.15681 10.5937 7.41921 11.8661 8.97583 11.8661C10.5096 11.8661 11.7728 10.5937 11.7728 9.02516C11.7728 7.4566 10.5096 6.18338 8.97583 6.18338C7.41921 6.18338 6.15681 7.4566 6.15681 9.02516Z" fill="#2F2F2F"/>
<path fill-rule="evenodd" clip-rule="evenodd" d="M13.8469 5.52449C13.0808 5.52449 12.4492 4.88871 12.4492 4.11594C12.4492 3.31937 13.0808 2.68359 13.8469 2.68359C14.6138 2.68359 15.2454 3.31937 15.2454 4.11594C15.2454 4.88871 14.6138 5.52449 13.8469 5.52449Z" fill="#2F2F2F"/>
</svg>
